<svg xmlns="http://www.w3.org/2000/svg" xmlns:xlink="http://www.w3.org/1999/xlink" width="50" height="24" viewBox="0 0 50 24">
  <defs>
    <clipPath id="clip-path">
      <path id="Path_82916" data-name="Path 82916" d="M0,0H24V-50H0Z" fill="#101010"/>
    </clipPath>
    <clipPath id="clip-path-2">
      <rect id="Rectangle_1" data-name="Rectangle 1" width="26" height="55" transform="translate(-1 -55)" fill="#101010"/>
    </clipPath>
    <clipPath id="clip-path-3">
      <path id="Path_82915" data-name="Path 82915" d="M22.249-14.16,13-3.649V-53a1,1,0,0,0-1-1,1,1,0,0,0-1,1V-3.649L1.75-14.16a1,1,0,0,0-1.411-.09,1,1,0,0,0-.09,1.411l11,12.5c.007.007.015.012.021.019a1.052,1.052,0,0,0,.092.085c.021.016.04.035.062.05a1.135,1.135,0,0,0,.112.066c.021.012.041.024.062.034a.985.985,0,0,0,.145.048c.017,0,.032.012.049.015A1.019,1.019,0,0,0,12,0a1.01,1.01,0,0,0,.207-.022c.017,0,.033-.011.05-.015A1.013,1.013,0,0,0,12.4-.085c.022-.01.041-.022.063-.034a1.135,1.135,0,0,0,.112-.066c.021-.015.041-.034.062-.05a.915.915,0,0,0,.091-.085c.007-.007.015-.012.021-.019l11-12.5a1,1,0,0,0-.09-1.411A1,1,0,0,0,22.249-14.16Z" fill="#101010" clip-rule="evenodd"/>
    </clipPath>
  </defs>
  <g id="Group_180" data-name="Group 180" transform="translate(0 0) rotate(90)">
    <g id="Group_179" data-name="Group 179" clip-path="url(#clip-path)">
      <g id="Group_178" data-name="Group 178" style="isolation: isolate">
        <g id="Group_177" data-name="Group 177" clip-path="url(#clip-path-2)">
          <g id="Group_176" data-name="Group 176" clip-path="url(#clip-path-3)">
            <g id="Group_175" data-name="Group 175" clip-path="url(#clip-path)">
              <path id="Path_82913" data-name="Path 82913" d="M-5-59H29V5H-5Z" fill="#fff"/>
            </g>
          </g>
        </g>
      </g>
    </g>
  </g>
</svg>
