<svg id="Group_173" data-name="Group 173" xmlns="http://www.w3.org/2000/svg" width="20" height="20" viewBox="0 0 20 20">
  <rect id="Canvas" width="20" height="20" fill="#101010" opacity="0"/>
  <path id="Path_82912" data-name="Path 82912" d="M14.974,3.368,10,8.342,5.026,3.368a.586.586,0,0,0-.829,0L3.368,4.2a.586.586,0,0,0,0,.829L8.342,10,3.368,14.974a.586.586,0,0,0,0,.829l.829.829a.586.586,0,0,0,.829,0L10,11.658l4.974,4.974a.586.586,0,0,0,.829,0l.829-.829a.586.586,0,0,0,0-.829L11.658,10l4.974-4.974a.586.586,0,0,0,0-.829L15.8,3.368a.586.586,0,0,0-.829,0Z" transform="translate(0 0)" fill="#101010"/>
</svg>
